<svg xmlns="http://www.w3.org/2000/svg" width="120" height="40" viewBox="0 0 120 40">
  <path d="M110.13,0H9.53c-.3,0-.6,0-.9,0s-.6,0-.9,0A13.06,13.06,0,0,0,3.19.44,6.55,6.55,0,0,0,.11,3.2,6.18,6.18,0,0,0,0,6.46q0,.95,0,1.9v25.2q0,.95,0,1.9A6.18,6.18,0,0,0,.11,38.7,6.47,6.47,0,0,0,3.19,40.8a12.39,12.39,0,0,0,2.16.29c.29,0,.59,0,.89,0s.6,0,.9,0H110.13c.3,0,.6,0,.9,0s.59,0,.89,0a12.14,12.14,0,0,0,2.15-.29,6.47,6.47,0,0,0,3.09-2.1,6.37,6.37,0,0,0,.79-2,13.06,13.06,0,0,0,.3-2.16c0-.31,0-.61,0-.91s0-.6,0-.9V8.36c0-.3,0-.6,0-.9s0-.6,0-.9a13.06,13.06,0,0,0-.3-2.16,6.37,6.37,0,0,0-.79-2,6.47,6.47,0,0,0-3.09-2.1,12.14,12.14,0,0,0-2.15-.29c-.3,0-.59,0-.89,0s-.6,0-.9,0Z" fill="#a6a6a6"/>
  <path d="M8.44,39.12h-.9c-.29,0-.59,0-.89,0a11.93,11.93,0,0,1-2-.27,5.4,5.4,0,0,1-2.63-1.76,5.25,5.25,0,0,1-.67-1.71,11.71,11.71,0,0,1-.27-2c0-.31,0-.61,0-.91s0-.6,0-.89V8.44c0-.29,0-.59,0-.89s0-.6,0-.9a11.71,11.71,0,0,1,.27-2,5.25,5.25,0,0,1,.67-1.71A5.4,5.4,0,0,1,4.69,1.17a11.93,11.93,0,0,1,2-.27c.3,0,.6,0,.89,0s.61,0,.9,0H111.66c.29,0,.59,0,.89,0s.59,0,.89,0a11.92,11.92,0,0,1,2,.27,5.43,5.43,0,0,1,2.62,1.77,5,5,0,0,1,.68,1.71,11.71,11.71,0,0,1,.27,2c0,.3,0,.6,0,.9s0,.6,0,.89V33.65c0,.29,0,.59,0,.89s0,.6,0,.91a11.71,11.71,0,0,1-.27,2,5,5,0,0,1-.68,1.71,5.43,5.43,0,0,1-2.62,1.76,11.92,11.92,0,0,1-2,.27c-.3,0-.59,0-.89,0s-.6,0-.89,0Z"/>
  <path d="M24.77,20.3a4.92,4.92,0,0,1,2.34-4.13,5,5,0,0,0-4-2.16c-1.67-.18-3.3,1-4.16,1s-2.18-1-3.61-1a5.29,5.29,0,0,0-4.47,2.71c-1.93,3.33-.49,8.21,1.36,10.89.93,1.33,2,2.81,3.42,2.76s1.92-.88,3.61-.88,2.16.88,3.62.85,2.44-1.33,3.34-2.67a11,11,0,0,0,1.52-3.09A4.75,4.75,0,0,1,24.77,20.3Z" fill="#fff"/>
  <path d="M22,12.21a4.84,4.84,0,0,0,1.12-3.47A4.93,4.93,0,0,0,19.3,10.6a4.61,4.61,0,0,0-1.15,3.35A4.07,4.07,0,0,0,22,12.21Z" fill="#fff"/>
  <g>
    <path d="M42.3,27.1a4.8,4.8,0,0,1-1,3.6,3.34,3.34,0,0,1-2.69,1.21,3.45,3.45,0,0,1-3.2-2v5.31H33.93V21.45h1.38l.09,1.91a3.48,3.48,0,0,1,3.23-2.22,3.38,3.38,0,0,1,2.71,1.2A4.91,4.91,0,0,1,42.3,27.1Zm-1.53,0a3.76,3.76,0,0,0-.63-2.29,2.05,2.05,0,0,0-1.73-.87,2.14,2.14,0,0,0-2,1.29v3.95a2.19,2.19,0,0,0,2,1.29,2,2,0,0,0,1.72-.86A3.82,3.82,0,0,0,40.77,27.1Z" fill="#fff"/>
    <path d="M53.1,27.1a4.75,4.75,0,0,1-1,3.6,3.35,3.35,0,0,1-2.69,1.21,3.45,3.45,0,0,1-3.2-2v5.31H44.73V21.45h1.38l.09,1.91a3.48,3.48,0,0,1,3.23-2.22,3.39,3.39,0,0,1,2.71,1.2A4.91,4.91,0,0,1,53.1,27.1Zm-1.53,0a3.76,3.76,0,0,0-.63-2.29,2.05,2.05,0,0,0-1.73-.87,2.14,2.14,0,0,0-2,1.29v3.95a2.19,2.19,0,0,0,2,1.29,2,2,0,0,0,1.72-.86A3.82,3.82,0,0,0,51.57,27.1Z" fill="#fff"/>
    <path d="M63.12,28.42a2.18,2.18,0,0,1-.9,1.85,3.87,3.87,0,0,1-2.41.69,4.09,4.09,0,0,1-2.71-.83,2.77,2.77,0,0,1-1-2.13v-.23h1.49a1.76,1.76,0,0,0,.55,1.33,2.13,2.13,0,0,0,1.47.51,2,2,0,0,0,1.33-.4,1.26,1.26,0,0,0,.47-1,1.1,1.1,0,0,0-.43-.94,5.06,5.06,0,0,0-1.59-.6,13.61,13.61,0,0,1-1.76-.57,2.77,2.77,0,0,1-1.09-.83,2.15,2.15,0,0,1-.4-1.32,2.17,2.17,0,0,1,.89-1.8,3.58,3.58,0,0,1,2.27-.7,3.76,3.76,0,0,1,2.36.73,2.48,2.48,0,0,1,1,2h-1.5a1.41,1.41,0,0,0-.54-1.11,1.8,1.8,0,0,0-1.29-.43,1.82,1.82,0,0,0-1.23.39,1.19,1.19,0,0,0-.44,1,1,1,0,0,0,.4.83,4.87,4.87,0,0,0,1.48.57,15.45,15.45,0,0,1,1.85.59,2.9,2.9,0,0,1,1.13.85A2.19,2.19,0,0,1,63.12,28.42Z" fill="#fff"/>
    <path d="M69.77,32l-3.22-10.53h1.55l2.3,8.34h.07l2.3-8.34h1.55L71.1,32Z" fill="#fff"/>
    <path d="M84.17,27.1a4.87,4.87,0,0,1-1.17,3.43,3.91,3.91,0,0,1-3,1.33,3.79,3.79,0,0,1-3-1.3,4.8,4.8,0,0,1-1.15-3.36v-.58a4.87,4.87,0,0,1,1.15-3.38,3.86,3.86,0,0,1,3-1.31,3.92,3.92,0,0,1,3,1.3,4.83,4.83,0,0,1,1.17,3.39Zm-1.52-.53a3.78,3.78,0,0,0-.69-2.37,2.32,2.32,0,0,0-2-.89,2.3,2.3,0,0,0-1.95.89,3.82,3.82,0,0,0-.7,2.35v.55a3.86,3.86,0,0,0,.7,2.38,2.34,2.34,0,0,0,2,.9,2.32,2.32,0,0,0,2-.9,3.86,3.86,0,0,0,.68-2.39Z" fill="#fff"/>
    <path d="M90.61,22.51a4.84,4.84,0,0,0-.81-.07,2.16,2.16,0,0,0-2,1.32V32H86.27V21.45h1.46l0,1.08a2.55,2.55,0,0,1,2.12-1.26,2.49,2.49,0,0,1,.74.11Z" fill="#fff"/>
    <path d="M97.77,27.83H93.39v4.15H97.9V32h-6V16.9h6v.52H93.39v4.89h4.38Z" fill="#fff"/>
  </g>
  <g>
    <path d="M37.83,8.73a2.11,2.11,0,0,1,.58,1.54,2.33,2.33,0,0,1-.51,1.54,2.23,2.23,0,0,1-1.7.72H33.51v-6H36.2a2.13,2.13,0,0,1,1.59.61,2.06,2.06,0,0,1,.5,1.44A1.82,1.82,0,0,1,37.83,8.73ZM34.39,8.13h1.7a1.22,1.22,0,0,0,.95-.35A1.21,1.21,0,0,0,37.35,7a1.15,1.15,0,0,0-.31-.84,1.28,1.28,0,0,0-.95-.33H34.39Zm3.16,2.8a1.3,1.3,0,0,0,.35-.94,1.28,1.28,0,0,0-.34-.94,1.47,1.47,0,0,0-1.06-.36h-2.1v2.61h2.1A1.5,1.5,0,0,0,37.55,10.93Z" fill="#fff"/>
    <path d="M41.68,12.44a2.11,2.11,0,0,1-1.54.6,2.11,2.11,0,0,1-1.54-.6,2.09,2.09,0,0,1-.62-1.54V6.56h.88v4.31a1.52,1.52,0,0,0,.36,1,1.32,1.32,0,0,0,1.84,0,1.53,1.53,0,0,0,.37-1V6.56h.87v4.34A2.09,2.09,0,0,1,41.68,12.44Z" fill="#fff"/>
    <path d="M43.94,13V9h-.82V8.19h.82V7.47c0-1.2.63-1.8,1.88-1.8a2.9,2.9,0,0,1,.48,0v.76a1.84,1.84,0,0,0-.4,0,1,1,0,0,0-.73.25,1,1,0,0,0-.24.71v.82h1.13V9h-1.12v4Z" fill="#fff"/>
    <path d="M47.3,13V6.56h.88V13Z" fill="#fff"/>
    <path d="M52.45,13.15a2.26,2.26,0,0,1-1.67-.66,2.73,2.73,0,0,1,0-3.51,2.31,2.31,0,0,1,1.68-.66,2.15,2.15,0,0,1,1.14.3,2,2,0,0,1,.75.83V8.19h.88V13h-.88v-1.3a2,2,0,0,1-.75.89A2.15,2.15,0,0,1,52.45,13.15Zm.16-.81a1.59,1.59,0,0,0,1.17-.46,1.86,1.86,0,0,0,0-2.45,1.59,1.59,0,0,0-1.17-.46,1.63,1.63,0,0,0-1.17.45,1.87,1.87,0,0,0,0,2.47A1.63,1.63,0,0,0,52.61,12.34Z" fill="#fff"/>
    <path d="M58.32,12.44a2.11,2.11,0,0,1-1.54.6,2.11,2.11,0,0,1-1.54-.6,2.09,2.09,0,0,1-.62-1.54V6.56h.88v4.31a1.52,1.52,0,0,0,.36,1,1.32,1.32,0,0,0,1.84,0,1.53,1.53,0,0,0,.37-1V6.56h.87v4.34A2.09,2.09,0,0,1,58.32,12.44Z" fill="#fff"/>
    <path d="M64.25,13l-1.93-2.4L61,11.81V13h-.87V6.56H61v4.42l3-2.8h1.09l-2.23,2.09L65,13Z" fill="#fff"/>
  </g>
</svg>