<svg xmlns="http://www.w3.org/2000/svg" width="120" height="40" viewBox="0 0 120 40">
  <defs>
    <linearGradient id="a" x1="61.04" y1="111.99" x2="61.04" y2="38.03" gradientTransform="matrix(1, 0, 0, -1, 0, 130)" gradientUnits="userSpaceOnUse">
      <stop offset="0" stop-color="#00a0ff"/>
      <stop offset="0.01" stop-color="#00a1ff"/>
      <stop offset="0.26" stop-color="#00beff"/>
      <stop offset="0.51" stop-color="#00d2ff"/>
      <stop offset="0.76" stop-color="#00dfff"/>
      <stop offset="1" stop-color="#00e3ff"/>
    </linearGradient>
    <linearGradient id="b" x1="82.52" y1="86.14" x2="50.72" y2="86.14" gradientTransform="matrix(1, 0, 0, -1, 0, 130)" gradientUnits="userSpaceOnUse">
      <stop offset="0" stop-color="#ffe000"/>
      <stop offset="0.41" stop-color="#ffbd00"/>
      <stop offset="0.78" stop-color="#ffa500"/>
      <stop offset="1" stop-color="#ff9c00"/>
    </linearGradient>
    <linearGradient id="c" x1="68.93" y1="77.94" x2="26.83" y2="132.46" gradientTransform="matrix(1, 0, 0, -1, 0, 130)" gradientUnits="userSpaceOnUse">
      <stop offset="0" stop-color="#ff3a44"/>
      <stop offset="1" stop-color="#c31162"/>
    </linearGradient>
    <linearGradient id="d" x1="43.83" y1="126.37" x2="59.82" y2="108.43" gradientTransform="matrix(1, 0, 0, -1, 0, 130)" gradientUnits="userSpaceOnUse">
      <stop offset="0" stop-color="#32a071"/>
      <stop offset="0.07" stop-color="#2da771"/>
      <stop offset="0.48" stop-color="#15cf74"/>
      <stop offset="0.8" stop-color="#06e775"/>
      <stop offset="1" stop-color="#00f076"/>
    </linearGradient>
  </defs>
  <g>
    <rect width="120" height="40" rx="5" ry="5"/>
    <rect x="0.5" y="0.5" width="119" height="39" rx="4.5" ry="4.5" fill="none" stroke="#a6a6a6"/>
    <path d="M110.13,0H9.53A9.61,9.61,0,0,0,0,9.53V30.48A9.61,9.61,0,0,0,9.53,40H110.13a9.6,9.6,0,0,0,9.52-9.52V9.53A9.6,9.6,0,0,0,110.13,0Z"/>
    <path d="M60.11,12a4,4,0,0,1-1.1.8,4.21,4.21,0,0,1-1.49.29,4.16,4.16,0,0,1-1.57-.3,4,4,0,0,1-1.25-.84,3.89,3.89,0,0,1-.83-1.25,3.94,3.94,0,0,1-.3-1.53A3.91,3.91,0,0,1,54.7,7.7a3.86,3.86,0,0,1,.83-1.24,3.93,3.93,0,0,1,1.25-.84,4,4,0,0,1,1.57-.31,4,4,0,0,1,1.43.26,3.53,3.53,0,0,1,1.11.75L60,7.18a2.78,2.78,0,0,0-.85-.58,2.49,2.49,0,0,0-1-.2,2.62,2.62,0,0,0-1,.21,2.7,2.7,0,0,0-.85.58,2.74,2.74,0,0,0-.57.85,2.67,2.67,0,0,0-.21,1,2.72,2.72,0,0,0,.21,1.08,2.65,2.65,0,0,0,.57.86,2.68,2.68,0,0,0,.85.58,2.62,2.62,0,0,0,1,.21,2.71,2.71,0,0,0,1.06-.21,3,3,0,0,0,.9-.6Z" fill="#fff" stroke="#fff" stroke-miterlimit="10" stroke-width="0.2"/>
    <path d="M66.41,13.07h-1.5L61.7,5.53H63.3l2.48,5.74h0L68.3,5.53h1.59Z" fill="#fff" stroke="#fff" stroke-miterlimit="10" stroke-width="0.2"/>
    <path d="M68.88,9.89a3.91,3.91,0,0,1,.3-1.53,3.85,3.85,0,0,1,.83-1.25,3.84,3.84,0,0,1,1.24-.84,4.16,4.16,0,0,1,1.58-.3,4.23,4.23,0,0,1,1.58.3,3.91,3.91,0,0,1,2.08,2.09,4,4,0,0,1,.3,1.53,3.93,3.93,0,0,1-.3,1.53,3.89,3.89,0,0,1-.83,1.25,3.9,3.9,0,0,1-1.25.84,4.1,4.1,0,0,1-1.58.3,4,4,0,0,1-1.58-.3A3.76,3.76,0,0,1,70.07,12a3.89,3.89,0,0,1-.83-1.25A3.94,3.94,0,0,1,68.88,9.89Zm1.5,0a2.72,2.72,0,0,0,.22,1.08,2.93,2.93,0,0,0,.58.86,2.67,2.67,0,0,0,.84.57,2.82,2.82,0,0,0,2.14,0,2.71,2.71,0,0,0,.85-.57,2.47,2.47,0,0,0,.58-.86,2.72,2.72,0,0,0,.22-1.08,2.67,2.67,0,0,0-.22-1.05,2.59,2.59,0,0,0-.58-.85,2.8,2.8,0,0,0-.85-.57,2.82,2.82,0,0,0-2.14,0,2.76,2.76,0,0,0-.84.57,2.83,2.83,0,0,0-.58.85A2.67,2.67,0,0,0,70.38,9.89Z" fill="#fff" stroke="#fff" stroke-miterlimit="10" stroke-width="0.2"/>
    <path d="M78,13.07V5.53h1.83l3.78,6h0v-6h1.5v7.54H83.33l-3.79-6h0v6Z" fill="#fff" stroke="#fff" stroke-miterlimit="10" stroke-width="0.2"/>
    <path d="M93.94,7H91.56V13.1H90.07V7H87.69V5.53h6.25Z" fill="#fff" stroke="#fff" stroke-miterlimit="10" stroke-width="0.2"/>
    <path d="M99.57,13.07H98.08V5.53h1.49Z" fill="#fff" stroke="#fff" stroke-miterlimit="10" stroke-width="0.2"/>
    <path d="M106.56,13.07h-1.5V7H102.6V5.53h6.39V7h-2.43Z" fill="#fff" stroke="#fff" stroke-miterlimit="10" stroke-width="0.2"/>
    <path d="M42.2,21.3a4.77,4.77,0,0,0-1.37-3.53,5.09,5.09,0,0,0-3.85-1.61A5.39,5.39,0,0,0,32.3,21.3a5.44,5.44,0,0,0,4.68,5.76,5.73,5.73,0,0,0,.67,0,5.25,5.25,0,0,0,3.36-1.24,4,4,0,0,0,1.26-1.86l-1.58-.64a2.72,2.72,0,0,1-1,1.24,3.11,3.11,0,0,1-2,.6,3.18,3.18,0,0,1-3-1.89,3.54,3.54,0,0,1-.29-1.39H42.3C42.31,22.16,42.29,21.77,42.2,21.3Zm-8.12-.63A3.42,3.42,0,0,1,35,19.48a3.26,3.26,0,0,1,2-.69,2.88,2.88,0,0,1,2,.68,3.17,3.17,0,0,1,.88,2.2Z" fill="#fff"/>
<path d="M44.57,17.91h-1.9V30.47h1.9V24.44a2.91,2.91,0,0,1,.92-2.25,3,3,0,0,1,2.14-.81,3.07,3.07,0,0,1,1.29.28,2.27,2.27,0,0,1,.94.84,3,3,0,0,1,.35,1.52v6.45h1.9V23.64a4,4,0,0,0-1.16-3.1,4.17,4.17,0,0,0-3-1.1,3.85,3.85,0,0,0-3.39,1.89h0Z" fill="#fff"/>
    <path d="M60.69,24.74a5.33,5.33,0,0,0-2.78-.77,5.43,5.43,0,0,0-2.1.39,4.92,4.92,0,0,0-1.62,1.08,5,5,0,0,0-1.06,1.63,5.7,5.7,0,0,0,0,4.1,5,5,0,0,0,1.06,1.62,4.8,4.8,0,0,0,1.62,1.08,5.65,5.65,0,0,0,2.1.38,5.53,5.53,0,0,0,2.68-.69,4.53,4.53,0,0,0,1.89-1.94l-1.64-.95a2.83,2.83,0,0,1-1.15,1.18,3.19,3.19,0,0,1-1.68.46,3.22,3.22,0,0,1-1.69-.44,3.05,3.05,0,0,1-1.14-1.24,3.72,3.72,0,0,1-.41-1.74,3.65,3.65,0,0,1,.41-1.72,3.15,3.15,0,0,1,1.14-1.25,3.12,3.12,0,0,1,1.69-.47,3,3,0,0,1,1.58.42,2.63,2.63,0,0,1,1.1,1.16l1.7-.91A4.07,4.07,0,0,0,60.69,24.74Z" fill="#fff"/>
    <path d="M73.61,29.56a5.46,5.46,0,0,1-1.47,1,4.69,4.69,0,0,1-2.06.43,5.19,5.19,0,0,1-2.07-.41,5.05,5.05,0,0,1-1.64-1.12,5,5,0,0,1-1.1-1.65,5.16,5.16,0,0,1,0-4.12,5.2,5.2,0,0,1,1.1-1.66A5.14,5.14,0,0,1,68,21a5.19,5.19,0,0,1,2.07-.41,4.68,4.68,0,0,1,1.93.39,5.1,5.1,0,0,1,1.56,1.1l1.33-1.31a6.33,6.33,0,0,0-2.18-1.49,6.53,6.53,0,0,0-2.65-.54,7.33,7.33,0,0,0-2.9.56,7.32,7.32,0,0,0-2.33,1.54,7.2,7.2,0,0,0-1.54,2.32,7.57,7.57,0,0,0,0,5.76,7.16,7.16,0,0,0,1.54,2.3,7.14,7.14,0,0,0,2.33,1.54,7.33,7.33,0,0,0,2.9.56,7.55,7.55,0,0,0,2.94-.58,5.74,5.74,0,0,0,2.33-1.71Z" fill="#fff"/>
    <path d="M79.58,22.56a4.35,4.35,0,0,0-1.56.56,4.85,4.85,0,0,0-1.25,1.09V17.91h-1.9V30.47h1.9V25.14a3,3,0,0,1,.38-1.55,2.6,2.6,0,0,1,1.09-1,3.35,3.35,0,0,1,1.56-.37,2.92,2.92,0,0,1,1.1.22v-1.9A3.66,3.66,0,0,0,79.58,22.56Z" fill="#fff"/>
    <path d="M89.86,24.85a6.35,6.35,0,0,0-1.68-1.58,4.14,4.14,0,0,0-5.37.88,5.19,5.19,0,0,0-1.06,3.31,5.87,5.87,0,0,0,.34,2,4.41,4.41,0,0,0,1,1.63,4.39,4.39,0,0,0,1.56,1.08,5.2,5.2,0,0,0,2,.39,4.6,4.6,0,0,0,2.3-.56,4,4,0,0,0,1.56-1.54l-1.68-.65a2.44,2.44,0,0,1-.94.83,2.57,2.57,0,0,1-1.28.34,2.59,2.59,0,0,1-1.37-.35,2.5,2.5,0,0,1-.95-.95,2.73,2.73,0,0,1-.37-1.35h6.65v-.57A7.61,7.61,0,0,0,89.86,24.85Zm-6.22,2a2.52,2.52,0,0,1,.86-1.28,2.38,2.38,0,0,1,1.46-.49,2.39,2.39,0,0,1,1.46.49A2.57,2.57,0,0,1,88.22,27Z" fill="#fff"/>
    <path d="M91.57,28.12a3,3,0,0,0,.92,1.4,4,4,0,0,0,1.51.76,7.26,7.26,0,0,0,2,.26,8.83,8.83,0,0,0,1.69-.16,4.87,4.87,0,0,0,1.49-.54,3.29,3.29,0,0,0,1.09-1,2.64,2.64,0,0,0,.42-1.52,2.61,2.61,0,0,0-.5-1.71,3.5,3.5,0,0,0-1.3-.95,10.33,10.33,0,0,0-1.83-.58c-.69-.15-1.4-.31-2.13-.48a4.59,4.59,0,0,1-1-.32,1,1,0,0,1-.49-.38,1.13,1.13,0,0,1-.12-.55,1.3,1.3,0,0,1,.25-.77,1.88,1.88,0,0,1,.66-.53,3.6,3.6,0,0,1,.89-.29,5.46,5.46,0,0,1,.95-.08,3.31,3.31,0,0,1,1.78.4,1.7,1.7,0,0,1,.73,1.29h1.9a3.47,3.47,0,0,0-.46-1.74,3.38,3.38,0,0,0-1.11-1.18,5,5,0,0,0-1.54-.66,7.16,7.16,0,0,0-1.8-.21,7.05,7.05,0,0,0-1.62.17,4.19,4.19,0,0,0-1.4.56,3,3,0,0,0-1,1,2.8,2.8,0,0,0-.37,1.48,2.68,2.68,0,0,0,.48,1.66,3.53,3.53,0,0,0,1.27,1,10.2,10.2,0,0,0,1.8.59c.68.16,1.37.31,2.07.44a7.23,7.23,0,0,1,1.08.28,2.56,2.56,0,0,1,.76.4,1.3,1.3,0,0,1,.41.51,1.89,1.89,0,0,1,.13.69,1.38,1.38,0,0,1-.31.89,2.4,2.4,0,0,1-.77.58,3.85,3.85,0,0,1-1,.32,6.47,6.47,0,0,1-1.06.1,6,6,0,0,1-1.3-.14,3.43,3.43,0,0,1-1.14-.45,2.29,2.29,0,0,1-.82-.81,2.54,2.54,0,0,1-.31-1.21h-2A3.86,3.86,0,0,0,91.57,28.12Z" fill="#fff"/>
    <path d="M46.54,15.61A5.7,5.7,0,0,1,45,16.94a6.28,6.28,0,0,1-4.64,0,5.78,5.78,0,0,1-1.55-1.33A5.66,5.66,0,0,1,36,11.62a5.7,5.7,0,0,1,.3-1.85A6,6,0,0,1,37,8.05a5.94,5.94,0,0,1,1.34-1.24A5.59,5.59,0,0,1,40.32,6a5.71,5.71,0,0,1,2.23.42A5.32,5.32,0,0,1,45,8.48l-1.13,1.13a3.86,3.86,0,0,0-1.38-1.5,3.74,3.74,0,0,0-2-.52,3.7,3.7,0,0,0-1.53.32,4,4,0,0,0-1.24.87,4.17,4.17,0,0,0-.83,1.33,4.33,4.33,0,0,0,0,3.3,4.06,4.06,0,0,0,.83,1.32,3.89,3.89,0,0,0,1.24.86,3.7,3.7,0,0,0,1.53.31,3.42,3.42,0,0,0,2.1-.63,4.44,4.44,0,0,0,1.36-1.63Z" fill="#fff"/>
    <path d="M47.55,7.9h2l2.7,7.59h.05L55,7.9h2l-3.45,9.77H51.05Z" fill="#fff"/>
    <path d="M58.89,8.9a.9.9,0,0,1-.67-.27.93.93,0,0,1,0-1.33.91.91,0,0,1,.67-.26.89.89,0,0,1,.66.26.93.93,0,0,1,0,1.33A.87.87,0,0,1,58.89,8.9Zm-1,8.77V9.86h1.92v7.81Z" fill="#fff"/>
    <path d="M62.41,17.67V9.86h1.85l.08,1.16h.05A3.06,3.06,0,0,1,65.64,10a3.5,3.5,0,0,1,1.79-.41,3.43,3.43,0,0,1,1.54.33,2.92,2.92,0,0,1,1.09.9,4,4,0,0,1,.64,1.37,6.59,6.59,0,0,1,.21,1.72v3.78H69V14.12a3.9,3.9,0,0,0-.38-1.9,1.46,1.46,0,0,0-1.41-.69,2.42,2.42,0,0,0-1.07.23,2.2,2.2,0,0,0-.8.69,3.09,3.09,0,0,0-.51,1.05,5.25,5.25,0,0,0-.17,1.39v2.78Z" fill="#fff"/>
    <path d="M82.16,17.67H80.31l-.08-1h-.05A2.91,2.91,0,0,1,79,17.6a3.81,3.81,0,0,1-1.62.36,3.43,3.43,0,0,1-1.55-.33,2.88,2.88,0,0,1-1.09-.9,3.82,3.82,0,0,1-.64-1.36,6.37,6.37,0,0,1-.21-1.7V9.86h1.93v3.58a3.64,3.64,0,0,0,.39,1.89A1.47,1.47,0,0,0,77.63,16a2.47,2.47,0,0,0,1.07-.22,2.1,2.1,0,0,0,.79-.7,3.25,3.25,0,0,0,.5-1.05,5.46,5.46,0,0,0,.17-1.42V9.86h1.93Z" fill="#fff"/>
    <path d="M89.63,15.94A2.78,2.78,0,0,1,88.5,17.36a4.35,4.35,0,0,1-2,.4,6.13,6.13,0,0,1-2-.31A4.48,4.48,0,0,1,83,16.64l1.18-.92a3.15,3.15,0,0,0,1,.69,3.28,3.28,0,0,0,1.37.27,2.14,2.14,0,0,0,1.15-.27.81.81,0,0,0,.43-.72.78.78,0,0,0-.35-.68,3.83,3.83,0,0,0-1.25-.46c-.33-.09-.69-.19-1.08-.3a4.5,4.5,0,0,1-1.07-.42A2.18,2.18,0,0,1,83.69,13a2.1,2.1,0,0,1-.29-1.12,2.12,2.12,0,0,1,.26-1,2.59,2.59,0,0,1,.69-.81,3.3,3.3,0,0,1,1-.5,4.27,4.27,0,0,1,1.29-.18,5.15,5.15,0,0,1,1.68.28,3.17,3.17,0,0,1,1.35.82l-1.12.85a2.5,2.5,0,0,0-.87-.54,3,3,0,0,0-1.09-.17,2.3,2.3,0,0,0-1,.19.59.59,0,0,0-.4.55.66.66,0,0,0,.27.56,2.5,2.5,0,0,0,.8.36c.35.11.73.22,1.15.34a10.6,10.6,0,0,1,1.23.43,2.92,2.92,0,0,1,1,.62,2.32,2.32,0,0,1,.64,1.69A2.28,2.28,0,0,1,89.63,15.94Z" fill="#fff"/>
    <path d="M60.45,43.24a8.89,8.89,0,0,1-6.43-2.53L76.38,18.35A17.54,17.54,0,0,1,78,20.11,17.67,17.67,0,0,1,82,33.82a16.65,16.65,0,0,1-.69,4.77Z" fill="url(#a)"/>
    <path d="M42.33,31.73a17.76,17.76,0,0,1,6.13-13.55,18.86,18.86,0,0,1,5.56-3.47L32.66,36.07A18,18,0,0,1,42.33,31.73Z" fill="url(#b)"/>
    <path d="M60.45,8.63a17.61,17.61,0,0,1,17.8,17.42c0,.69,0,1.36-.1,2L57.08,7a18.71,18.71,0,0,1,3.37-.33" fill="url(#c)"/>
    <path d="M42.33,31.73A17.6,17.6,0,0,1,57.08,7L32.66,36.07A17.64,17.64,0,0,1,42.33,31.73Z" fill="url(#d)"/>
  </g>
</svg>